<mxfile host="65bd71144e" modified="2021-01-24T00:06:31.109Z" agent="5.0 (Windows NT 10.0; Win64; x64) AppleWebKit/537.36 (KHTML, like Gecko) Code/1.52.1 Chrome/83.0.4103.122 Electron/9.3.5 Safari/537.36" etag="yoCUl15B90AF3L-939JM" version="13.10.0" type="embed">
    <diagram id="kgpKYQtTHZ0yAKxKKP6v" name="Page-1">
        <mxGraphModel dx="622" dy="330" grid="1" gridSize="10" guides="1" tooltips="1" connect="1" arrows="1" fold="1" page="1" pageScale="1" pageWidth="850" pageHeight="1100" math="0" shadow="0">
            <root>
                <mxCell id="0"/>
                <mxCell id="1" parent="0"/>
                <mxCell id="_pVvDDTqTVWBj4t2EdJC-2" value="&lt;div&gt;Main Component&lt;/div&gt;" style="rounded=0;whiteSpace=wrap;html=1;align=start;container=1;movableLabel=1;recursiveResize=0;fillColor=#647687;strokeColor=#314354;fontColor=#ffffff;" parent="1" vertex="1">
                    <mxGeometry x="49" y="40" width="940" height="630" as="geometry">
                        <mxPoint x="3" y="-281" as="offset"/>
                    </mxGeometry>
                </mxCell>
                <mxCell id="_pVvDDTqTVWBj4t2EdJC-4" value="AudioStream" style="rounded=0;whiteSpace=wrap;html=1;movableLabel=1;" parent="_pVvDDTqTVWBj4t2EdJC-2" vertex="1">
                    <mxGeometry x="70" y="70" width="240" height="220.54" as="geometry">
                        <mxPoint x="1" y="-89" as="offset"/>
                    </mxGeometry>
                </mxCell>
                <mxCell id="_pVvDDTqTVWBj4t2EdJC-5" value="HTMLAudioElement" style="rounded=0;whiteSpace=wrap;html=1;fillColor=#60a917;strokeColor=#2D7600;fontColor=#ffffff;" parent="_pVvDDTqTVWBj4t2EdJC-2" vertex="1">
                    <mxGeometry x="130.63" y="140" width="118.75" height="20" as="geometry"/>
                </mxCell>
                <mxCell id="_pVvDDTqTVWBj4t2EdJC-6" value="Musicbar" style="rounded=0;whiteSpace=wrap;html=1;fillColor=#60a917;strokeColor=#2D7600;fontColor=#ffffff;" parent="_pVvDDTqTVWBj4t2EdJC-2" vertex="1">
                    <mxGeometry x="144.38" y="180" width="92.5" height="20" as="geometry"/>
                </mxCell>
                <mxCell id="_pVvDDTqTVWBj4t2EdJC-7" value="Sidebar" style="rounded=0;whiteSpace=wrap;html=1;movableLabel=1;" parent="_pVvDDTqTVWBj4t2EdJC-2" vertex="1">
                    <mxGeometry x="350" y="80" width="185" height="170" as="geometry">
                        <mxPoint x="-6" y="-68" as="offset"/>
                    </mxGeometry>
                </mxCell>
                <mxCell id="_pVvDDTqTVWBj4t2EdJC-74" style="edgeStyle=orthogonalEdgeStyle;rounded=0;orthogonalLoop=1;jettySize=auto;html=1;entryX=0;entryY=0.5;entryDx=0;entryDy=0;fontSize=9;" parent="_pVvDDTqTVWBj4t2EdJC-2" source="_pVvDDTqTVWBj4t2EdJC-8" target="_pVvDDTqTVWBj4t2EdJC-10" edge="1">
                    <mxGeometry relative="1" as="geometry"/>
                </mxCell>
                <mxCell id="_pVvDDTqTVWBj4t2EdJC-8" value="Tabs" style="rounded=0;whiteSpace=wrap;html=1;fillColor=#60a917;strokeColor=#2D7600;fontColor=#ffffff;" parent="_pVvDDTqTVWBj4t2EdJC-2" vertex="1">
                    <mxGeometry x="383.12" y="150" width="118.75" height="20" as="geometry"/>
                </mxCell>
                <mxCell id="_pVvDDTqTVWBj4t2EdJC-36" value="" style="edgeStyle=orthogonalEdgeStyle;rounded=0;orthogonalLoop=1;jettySize=auto;html=1;" parent="_pVvDDTqTVWBj4t2EdJC-2" source="_pVvDDTqTVWBj4t2EdJC-10" target="_pVvDDTqTVWBj4t2EdJC-35" edge="1">
                    <mxGeometry relative="1" as="geometry"/>
                </mxCell>
                <mxCell id="_pVvDDTqTVWBj4t2EdJC-10" value="Routerview" style="rounded=0;whiteSpace=wrap;html=1;" parent="_pVvDDTqTVWBj4t2EdJC-2" vertex="1">
                    <mxGeometry x="654.38" y="80" width="120" height="40" as="geometry"/>
                </mxCell>
                <mxCell id="_pVvDDTqTVWBj4t2EdJC-35" value="AllSongs" style="whiteSpace=wrap;html=1;rounded=0;movableLabel=1;" parent="_pVvDDTqTVWBj4t2EdJC-2" vertex="1">
                    <mxGeometry x="593.75" y="190" width="241.25" height="210" as="geometry">
                        <mxPoint x="-1" y="-86" as="offset"/>
                    </mxGeometry>
                </mxCell>
                <mxCell id="_pVvDDTqTVWBj4t2EdJC-39" style="edgeStyle=orthogonalEdgeStyle;rounded=0;orthogonalLoop=1;jettySize=auto;html=1;entryX=0;entryY=0.5;entryDx=0;entryDy=0;exitX=0;exitY=0.5;exitDx=0;exitDy=0;" parent="_pVvDDTqTVWBj4t2EdJC-2" source="_pVvDDTqTVWBj4t2EdJC-37" target="_pVvDDTqTVWBj4t2EdJC-38" edge="1">
                    <mxGeometry relative="1" as="geometry"/>
                </mxCell>
                <mxCell id="_pVvDDTqTVWBj4t2EdJC-37" value="SongList" style="rounded=0;whiteSpace=wrap;html=1;fillColor=#60a917;strokeColor=#2D7600;fontColor=#ffffff;" parent="_pVvDDTqTVWBj4t2EdJC-2" vertex="1">
                    <mxGeometry x="665" y="320" width="120" height="30" as="geometry"/>
                </mxCell>
                <mxCell id="_pVvDDTqTVWBj4t2EdJC-38" value="SongDetails" style="rounded=0;whiteSpace=wrap;html=1;fillColor=#60a917;strokeColor=#2D7600;fontColor=#ffffff;" parent="_pVvDDTqTVWBj4t2EdJC-2" vertex="1">
                    <mxGeometry x="665" y="360" width="120" height="30" as="geometry"/>
                </mxCell>
                <mxCell id="_pVvDDTqTVWBj4t2EdJC-41" value="&lt;font style=&quot;font-size: 7px&quot;&gt;onClick&lt;br style=&quot;font-size: 7px&quot;&gt;(EventBus)&lt;br style=&quot;font-size: 7px&quot;&gt;&lt;/font&gt;" style="text;html=1;strokeColor=none;fillColor=none;align=center;verticalAlign=middle;whiteSpace=wrap;rounded=0;fontSize=7;" parent="_pVvDDTqTVWBj4t2EdJC-2" vertex="1">
                    <mxGeometry x="587.13" y="350" width="67.25" height="3" as="geometry"/>
                </mxCell>
                <mxCell id="_pVvDDTqTVWBj4t2EdJC-69" style="edgeStyle=orthogonalEdgeStyle;rounded=0;orthogonalLoop=1;jettySize=auto;html=1;entryX=0;entryY=0.5;entryDx=0;entryDy=0;fontSize=9;exitX=0;exitY=0.5;exitDx=0;exitDy=0;" parent="_pVvDDTqTVWBj4t2EdJC-2" source="_pVvDDTqTVWBj4t2EdJC-66" target="_pVvDDTqTVWBj4t2EdJC-6" edge="1">
                    <mxGeometry relative="1" as="geometry"/>
                </mxCell>
                <mxCell id="_pVvDDTqTVWBj4t2EdJC-71" value="Props" style="edgeLabel;html=1;align=center;verticalAlign=middle;resizable=0;points=[];fontSize=9;" parent="_pVvDDTqTVWBj4t2EdJC-69" vertex="1" connectable="0">
                    <mxGeometry x="-0.0406" relative="1" as="geometry">
                        <mxPoint y="5.03" as="offset"/>
                    </mxGeometry>
                </mxCell>
                <mxCell id="_pVvDDTqTVWBj4t2EdJC-70" style="edgeStyle=orthogonalEdgeStyle;rounded=0;orthogonalLoop=1;jettySize=auto;html=1;entryX=1;entryY=0.5;entryDx=0;entryDy=0;fontSize=9;exitX=1;exitY=0.5;exitDx=0;exitDy=0;" parent="_pVvDDTqTVWBj4t2EdJC-2" source="_pVvDDTqTVWBj4t2EdJC-66" target="_pVvDDTqTVWBj4t2EdJC-5" edge="1">
                    <mxGeometry relative="1" as="geometry">
                        <Array as="points">
                            <mxPoint x="290" y="230"/>
                            <mxPoint x="290" y="150"/>
                        </Array>
                    </mxGeometry>
                </mxCell>
                <mxCell id="_pVvDDTqTVWBj4t2EdJC-73" value="Refs" style="edgeLabel;html=1;align=center;verticalAlign=middle;resizable=0;points=[];fontSize=9;" parent="_pVvDDTqTVWBj4t2EdJC-70" vertex="1" connectable="0">
                    <mxGeometry x="0.2211" relative="1" as="geometry">
                        <mxPoint y="14.12" as="offset"/>
                    </mxGeometry>
                </mxCell>
                <mxCell id="_pVvDDTqTVWBj4t2EdJC-66" value="CurrentSong" style="rounded=0;whiteSpace=wrap;html=1;fontSize=9;fillColor=#1ba1e2;strokeColor=#006EAF;fontColor=#ffffff;" parent="_pVvDDTqTVWBj4t2EdJC-2" vertex="1">
                    <mxGeometry x="130.63" y="220" width="120" height="20" as="geometry"/>
                </mxCell>
                <mxCell id="_pVvDDTqTVWBj4t2EdJC-78" style="edgeStyle=orthogonalEdgeStyle;rounded=0;orthogonalLoop=1;jettySize=auto;html=1;entryX=0;entryY=0.5;entryDx=0;entryDy=0;fontSize=12;" parent="_pVvDDTqTVWBj4t2EdJC-2" source="_pVvDDTqTVWBj4t2EdJC-76" target="_pVvDDTqTVWBj4t2EdJC-5" edge="1">
                    <mxGeometry relative="1" as="geometry">
                        <Array as="points">
                            <mxPoint x="90" y="270"/>
                            <mxPoint x="90" y="150"/>
                        </Array>
                    </mxGeometry>
                </mxCell>
                <mxCell id="_pVvDDTqTVWBj4t2EdJC-81" value="Refs" style="edgeLabel;html=1;align=center;verticalAlign=middle;resizable=0;points=[];fontSize=10;" parent="_pVvDDTqTVWBj4t2EdJC-78" vertex="1" connectable="0">
                    <mxGeometry x="-0.0758" relative="1" as="geometry">
                        <mxPoint y="18" as="offset"/>
                    </mxGeometry>
                </mxCell>
                <mxCell id="_pVvDDTqTVWBj4t2EdJC-79" style="edgeStyle=orthogonalEdgeStyle;rounded=0;orthogonalLoop=1;jettySize=auto;html=1;entryX=1;entryY=0.5;entryDx=0;entryDy=0;fontSize=12;" parent="_pVvDDTqTVWBj4t2EdJC-2" source="_pVvDDTqTVWBj4t2EdJC-76" target="_pVvDDTqTVWBj4t2EdJC-6" edge="1">
                    <mxGeometry relative="1" as="geometry">
                        <Array as="points">
                            <mxPoint x="269" y="270"/>
                            <mxPoint x="269" y="190"/>
                        </Array>
                    </mxGeometry>
                </mxCell>
                <mxCell id="_pVvDDTqTVWBj4t2EdJC-80" value="Props" style="edgeLabel;html=1;align=center;verticalAlign=middle;resizable=0;points=[];fontSize=10;" parent="_pVvDDTqTVWBj4t2EdJC-79" vertex="1" connectable="0">
                    <mxGeometry x="-0.2843" relative="1" as="geometry">
                        <mxPoint as="offset"/>
                    </mxGeometry>
                </mxCell>
                <mxCell id="_pVvDDTqTVWBj4t2EdJC-76" value="PlayerState" style="rounded=0;whiteSpace=wrap;html=1;fontSize=9;fillColor=#1ba1e2;strokeColor=#006EAF;fontColor=#ffffff;" parent="_pVvDDTqTVWBj4t2EdJC-2" vertex="1">
                    <mxGeometry x="129.38" y="260" width="120" height="20" as="geometry"/>
                </mxCell>
                <mxCell id="_pVvDDTqTVWBj4t2EdJC-42" value="&lt;font style=&quot;font-size: 17px&quot;&gt;Vuex Store&lt;/font&gt;" style="rounded=0;whiteSpace=wrap;html=1;fontSize=7;movableLabel=1;fillColor=#6d8764;strokeColor=#3A5431;fontColor=#ffffff;" parent="1" vertex="1">
                    <mxGeometry x="1080" y="40" width="570" height="630" as="geometry">
                        <mxPoint x="-6" y="-264" as="offset"/>
                    </mxGeometry>
                </mxCell>
                <mxCell id="_pVvDDTqTVWBj4t2EdJC-43" value="&lt;font style=&quot;font-size: 12px&quot;&gt;PlayerModule&lt;/font&gt;" style="rounded=0;whiteSpace=wrap;html=1;fontSize=7;movableLabel=1;" parent="1" vertex="1">
                    <mxGeometry x="1150" y="140" width="420" height="270" as="geometry">
                        <mxPoint x="2" y="-102" as="offset"/>
                    </mxGeometry>
                </mxCell>
                <mxCell id="_pVvDDTqTVWBj4t2EdJC-82" style="edgeStyle=orthogonalEdgeStyle;rounded=0;orthogonalLoop=1;jettySize=auto;html=1;fontSize=10;" parent="1" source="_pVvDDTqTVWBj4t2EdJC-45" edge="1">
                    <mxGeometry relative="1" as="geometry">
                        <mxPoint x="210" y="320" as="targetPoint"/>
                        <Array as="points">
                            <mxPoint x="1450" y="530"/>
                            <mxPoint x="210" y="530"/>
                            <mxPoint x="210" y="320"/>
                        </Array>
                    </mxGeometry>
                </mxCell>
                <mxCell id="_pVvDDTqTVWBj4t2EdJC-84" value="&lt;font style=&quot;font-size: 17px;&quot;&gt;Watch&lt;/font&gt;" style="edgeLabel;html=1;align=center;verticalAlign=middle;resizable=0;points=[];fontSize=17;labelBackgroundColor=#647687;" parent="_pVvDDTqTVWBj4t2EdJC-82" vertex="1" connectable="0">
                    <mxGeometry x="0.1087" y="-6" relative="1" as="geometry">
                        <mxPoint x="-6.45" y="6" as="offset"/>
                    </mxGeometry>
                </mxCell>
                <mxCell id="_pVvDDTqTVWBj4t2EdJC-45" value="PlayerState" style="shape=table;html=1;whiteSpace=wrap;startSize=30;container=1;collapsible=0;childLayout=tableLayout;fontStyle=1;align=center;fontSize=7;fillColor=#1ba1e2;strokeColor=#006EAF;fontColor=#ffffff;" parent="1" vertex="1">
                    <mxGeometry x="1220" y="200" width="270" height="50" as="geometry"/>
                </mxCell>
                <mxCell id="_pVvDDTqTVWBj4t2EdJC-54" value="" style="shape=partialRectangle;html=1;whiteSpace=wrap;collapsible=0;dropTarget=0;pointerEvents=0;fillColor=#1ba1e2;top=0;left=0;bottom=0;right=0;points=[[0,0.5],[1,0.5]];portConstraint=eastwest;strokeColor=#006EAF;fontColor=#ffffff;" parent="_pVvDDTqTVWBj4t2EdJC-45" vertex="1">
                    <mxGeometry y="30" width="270" height="20" as="geometry"/>
                </mxCell>
                <mxCell id="_pVvDDTqTVWBj4t2EdJC-55" value="&lt;font style=&quot;font-size: 10px&quot;&gt;&amp;nbsp;PLAYING&lt;/font&gt;" style="shape=partialRectangle;html=1;whiteSpace=wrap;connectable=0;fillColor=none;top=0;left=0;bottom=0;right=0;overflow=hidden;" parent="_pVvDDTqTVWBj4t2EdJC-54" vertex="1">
                    <mxGeometry width="90" height="20" as="geometry"/>
                </mxCell>
                <mxCell id="_pVvDDTqTVWBj4t2EdJC-56" value="&lt;font style=&quot;font-size: 10px&quot;&gt;PAUSED&lt;/font&gt;" style="shape=partialRectangle;html=1;whiteSpace=wrap;connectable=0;fillColor=none;top=0;left=0;bottom=0;right=0;overflow=hidden;" parent="_pVvDDTqTVWBj4t2EdJC-54" vertex="1">
                    <mxGeometry x="90" width="90" height="20" as="geometry"/>
                </mxCell>
                <mxCell id="_pVvDDTqTVWBj4t2EdJC-57" value="&lt;font style=&quot;font-size: 10px&quot;&gt;STOPPED&lt;/font&gt;" style="shape=partialRectangle;html=1;whiteSpace=wrap;connectable=0;fillColor=none;top=0;left=0;bottom=0;right=0;overflow=hidden;" parent="_pVvDDTqTVWBj4t2EdJC-54" vertex="1">
                    <mxGeometry x="180" width="90" height="20" as="geometry"/>
                </mxCell>
                <mxCell id="_pVvDDTqTVWBj4t2EdJC-63" style="edgeStyle=orthogonalEdgeStyle;rounded=0;orthogonalLoop=1;jettySize=auto;html=1;fontSize=12;entryX=0.5;entryY=1;entryDx=0;entryDy=0;" parent="1" source="_pVvDDTqTVWBj4t2EdJC-60" target="_pVvDDTqTVWBj4t2EdJC-66" edge="1">
                    <mxGeometry relative="1" as="geometry">
                        <mxPoint x="161" y="310" as="targetPoint"/>
                        <Array as="points">
                            <mxPoint x="1360" y="490"/>
                            <mxPoint x="241" y="490"/>
                            <mxPoint x="241" y="280"/>
                        </Array>
                    </mxGeometry>
                </mxCell>
                <mxCell id="_pVvDDTqTVWBj4t2EdJC-65" value="&lt;font style=&quot;font-size: 17px&quot;&gt;Watch&lt;/font&gt;" style="edgeLabel;html=1;align=center;verticalAlign=middle;resizable=0;points=[];fontSize=12;labelBackgroundColor=#647687;" parent="_pVvDDTqTVWBj4t2EdJC-63" vertex="1" connectable="0">
                    <mxGeometry x="0.0065" y="1" relative="1" as="geometry">
                        <mxPoint x="8.55" y="-1" as="offset"/>
                    </mxGeometry>
                </mxCell>
                <mxCell id="_pVvDDTqTVWBj4t2EdJC-60" value="&lt;font style=&quot;font-size: 12px&quot;&gt;CurrentSong&lt;/font&gt;" style="rounded=1;whiteSpace=wrap;html=1;fontSize=7;fillColor=#1ba1e2;strokeColor=#006EAF;fontColor=#ffffff;" parent="1" vertex="1">
                    <mxGeometry x="1300" y="300" width="120" height="60" as="geometry"/>
                </mxCell>
                <mxCell id="_pVvDDTqTVWBj4t2EdJC-61" style="edgeStyle=orthogonalEdgeStyle;rounded=0;orthogonalLoop=1;jettySize=auto;html=1;fontSize=9;" parent="1" source="_pVvDDTqTVWBj4t2EdJC-37" target="_pVvDDTqTVWBj4t2EdJC-60" edge="1">
                    <mxGeometry relative="1" as="geometry"/>
                </mxCell>
                <mxCell id="_pVvDDTqTVWBj4t2EdJC-75" value="OnPlay" style="edgeLabel;html=1;align=center;verticalAlign=middle;resizable=0;points=[];fontSize=12;labelBackgroundColor=#647687;" parent="_pVvDDTqTVWBj4t2EdJC-61" vertex="1" connectable="0">
                    <mxGeometry x="-0.4947" relative="1" as="geometry">
                        <mxPoint x="-10.57" as="offset"/>
                    </mxGeometry>
                </mxCell>
                <mxCell id="_pVvDDTqTVWBj4t2EdJC-85" value="OnPlay" style="edgeLabel;html=1;align=center;verticalAlign=middle;resizable=0;points=[];fontSize=12;" parent="1" vertex="1" connectable="0">
                    <mxGeometry x="1199.9999999999998" y="330" as="geometry"/>
                </mxCell>
                <mxCell id="2" value="" style="rounded=0;whiteSpace=wrap;html=1;fillColor=#60a917;strokeColor=#2D7600;fontColor=#ffffff;" vertex="1" parent="1">
                    <mxGeometry x="49" y="710" width="121" height="20" as="geometry"/>
                </mxCell>
                <mxCell id="3" value="" style="rounded=0;whiteSpace=wrap;html=1;fontSize=9;fillColor=#1ba1e2;strokeColor=#006EAF;fontColor=#ffffff;" vertex="1" parent="1">
                    <mxGeometry x="49" y="750" width="120" height="20" as="geometry"/>
                </mxCell>
                <mxCell id="4" value="" style="rounded=0;whiteSpace=wrap;html=1;" vertex="1" parent="1">
                    <mxGeometry x="49" y="790" width="120" height="20" as="geometry"/>
                </mxCell>
                <mxCell id="5" value="Data holders" style="text;html=1;strokeColor=none;fillColor=none;align=left;verticalAlign=middle;whiteSpace=wrap;rounded=0;labelBackgroundColor=none;" vertex="1" parent="1">
                    <mxGeometry x="190" y="750" width="180" height="20" as="geometry"/>
                </mxCell>
                <mxCell id="6" value="Data dependant components / Vuex modules" style="text;html=1;strokeColor=none;fillColor=none;align=left;verticalAlign=middle;whiteSpace=wrap;rounded=0;labelBackgroundColor=none;" vertex="1" parent="1">
                    <mxGeometry x="190" y="710" width="250" height="20" as="geometry"/>
                </mxCell>
                <mxCell id="7" value="Holder / static components" style="text;html=1;strokeColor=none;fillColor=none;align=left;verticalAlign=middle;whiteSpace=wrap;rounded=0;labelBackgroundColor=none;" vertex="1" parent="1">
                    <mxGeometry x="190" y="790" width="180" height="20" as="geometry"/>
                </mxCell>
            </root>
        </mxGraphModel>
    </diagram>
</mxfile>